<svg xmlns="http://www.w3.org/2000/svg" viewBox="0 0 960 320" width="960" height="320" role="img" aria-label="PayBond flow">
  <defs>
    <marker id="head" markerWidth="10" markerHeight="10" refX="7" refY="3" orient="auto">
      <path d="M0,0 L8,3 L0,6 Z" fill="#4b6b78"/>
    </marker>
  </defs>

  <rect width="960" height="320" rx="18" fill="#0b1622"/>

  <rect x="40" y="128" width="180" height="66" rx="12" fill="#13293d" stroke="#22d3ee" stroke-width="1.5"/>
  <text x="130" y="167" text-anchor="middle" font-family="Segoe UI, Arial, sans-serif" font-size="20" fill="#e6f6f8">Buyer</text>

  <rect x="390" y="128" width="180" height="66" rx="12" fill="#13293d" stroke="#22d3ee" stroke-width="1.5"/>
  <text x="480" y="159" text-anchor="middle" font-family="Segoe UI, Arial, sans-serif" font-size="19" fill="#e6f6f8">PayBond</text>
  <text x="480" y="181" text-anchor="middle" font-family="Segoe UI, Arial, sans-serif" font-size="13" fill="#7fb0bb">Flare Coston2</text>

  <rect x="740" y="128" width="180" height="66" rx="12" fill="#13293d" stroke="#22d3ee" stroke-width="1.5"/>
  <text x="830" y="167" text-anchor="middle" font-family="Segoe UI, Arial, sans-serif" font-size="20" fill="#e6f6f8">Supplier</text>

  <rect x="390" y="34" width="180" height="54" rx="12" fill="#1a1f2e" stroke="#fbbf24" stroke-width="1.5"/>
  <text x="480" y="67" text-anchor="middle" font-family="Segoe UI, Arial, sans-serif" font-size="17" fill="#fde9b8">XRP Ledger</text>

  <line x1="220" y1="161" x2="384" y2="161" stroke="#4b6b78" stroke-width="2" marker-end="url(#head)"/>
  <text x="302" y="150" text-anchor="middle" font-family="Segoe UI, Arial, sans-serif" font-size="13" fill="#8fb3bd">lock FXRP</text>

  <path d="M170,128 C210,70 320,61 388,61" fill="none" stroke="#8a6d3b" stroke-width="2" marker-end="url(#head)"/>
  <text x="250" y="96" text-anchor="middle" font-family="Segoe UI, Arial, sans-serif" font-size="13" fill="#d9b877">send XRP + memo</text>

  <line x1="500" y1="88" x2="500" y2="126" stroke="#4b6b78" stroke-width="2" stroke-dasharray="6 6" marker-end="url(#head)">
    <animate attributeName="stroke-dashoffset" from="24" to="0" dur="1s" repeatCount="indefinite"/>
  </line>
  <text x="556" y="112" text-anchor="middle" font-family="Segoe UI, Arial, sans-serif" font-size="12" fill="#8fb3bd">FDC proof</text>

  <line x1="570" y1="161" x2="736" y2="161" stroke="#4b6b78" stroke-width="2" marker-end="url(#head)"/>
  <text x="653" y="150" text-anchor="middle" font-family="Segoe UI, Arial, sans-serif" font-size="13" fill="#8fb3bd">claim on default</text>

  <path d="M420,196 C360,252 248,252 190,198" fill="none" stroke="#2f6b4f" stroke-width="2" marker-end="url(#head)"/>
  <text x="305" y="256" text-anchor="middle" font-family="Segoe UI, Arial, sans-serif" font-size="13" fill="#79c3a0">reclaim if paid on time</text>

  <circle r="9" fill="#22d3ee">
    <animateMotion dur="2.4s" repeatCount="indefinite" path="M220,161 L384,161"/>
  </circle>
  <circle r="9" fill="#fbbf24">
    <animateMotion dur="2.8s" repeatCount="indefinite" path="M170,128 C210,70 320,61 388,61"/>
  </circle>
</svg>
